<svg xmlns:svg="http://www.w3.org/2000/svg" xmlns="http://www.w3.org/2000/svg" version="1.1" width="131" height="137"><g transform="translate(0,-915.36218)"><path d="m76.6 916.1-4 5.6-3.5-4.9c-1.8-2.4-7 0.9-5.2 2.5l4.3 4.6-8.2 0.4c-3.5 0-3.2 4.1-0.4 4.2l8.4-0.9-4.7 5.3c-0.9 2.6 3.3 4.3 4.9 2l4.5-5.9 3.5 5.1c1.4 1.7 5.9 0.1 5.3-2.6l-4.4-4.7 8.6-0.5c2.7-0.2 3-4.5-0.2-4.2l-8.1 0.9 4.5-5.2c1.2-1.5-3.7-3.1-5.2-1.7zm18.2 16.9c-5.5 2.7-18.8 8.3-21.6 9.9 6.6 5.9 4.2 10.9 3.8 12.4-0.3 0.3-0.7 0.9-1.2 1.6-4.6 4.7-2.6 2.5-16.7 15.4-13.6 12.5-23.5 34.5-20.6 48.3 0.1 0.4 0.2 0.9 0.3 1.3-10.2-7-13.6-14.4-13.4-21.6 0.4-12.2 12.4-25.9 29.3-36.5l-14.6-12.3c-0.7 0.4-1.4 0.9-2 1.3-0.7 0.4-1.3 0.9-2 1.3-19.8 13.4-35.5 31-36.1 49.5-0.6 19.6 17.3 37.6 58.2 48.9l0-0.1c33-0.9 54.6-8.8 65.1-20.2 9.8-10.7 9.2-23.1 3.6-33.5-0.2-0.3-0.4-0.7-0.6-1-0.2-0.3-0.4-0.7-0.6-1l-16.4 5.1c5.2 8.5 5.6 18.1-0.9 25.1-4 4.4-11 8.5-22.7 11.1 0.6-0.5 1.3-0.9 1.9-1.4 9.5-7.5 16.4-18.7 10.4-30.1-0.4-0.8-0.9-1.5-1.4-2.3l-16.2 5.5c5.5 8 1.4 14-6 19.8-1.3 1-2.7 2-4.2 2.9-4.3-4.4-9.1-10.9-8.3-17.8 2.9-24.4 34.5-46.9 38.1-51.4 9.9-12.2 5.7-21.6-5.4-30.2zm-36.6 8.6c-0.5-2.9-6.2-0.8-5.3 1.3l2.8 4.3-7.4-0.9c-1.8 0-2.6 2.5-1.4 3.3l7.7 0.4-5.4 3.6c-0.8 1 2 3.5 3.9 2.3l5.4-4.1 2 4.6c1 2.7 6.2 0.7 5.3-1.3l-2.9-4.3 7.8 0.7c2.5 0.3 2.6-3.4 0.8-3.4l-7.5-0.4 5.3-3.6c1.5-1.3-2.2-4.1-4.2-2l-4.9 4zm58.8 42.5-2.7 3.1-2.2-2.6c-1.2-1-3.9 0.3-3.4 1.4l2.7 2.4-5.3 0.3c-1 0.1-1.6 1.8-0.4 2.2l5.5-0.6-3.1 2.9c0.4 2 2.4 1.6 3.1 1l3-3.2 2.2 2.7c0.9 0.6 3.2 0.5 3.5-1.4l-2.8-2.4 5.6-0.4c1.2-0.3 1.1-2.2-0.1-2.3l-5.3 0.6 3-2.9c-0.3-1.4-2.2-1.9-3.3-0.8zm-28.2 8.2-2.6 2.9-2.1-2.4c-1.1-0.8-3.4 0-3.3 1.4l2.5 2.2-5.1 0.3c-1.3 0.1-1.4 1.6-0.4 2.1l5.3-0.6-3.1 2.7c0.1 1.2 1.5 1.9 3 0.9l3-3 2.1 2.5c1.1 0.5 3 0.1 3.4-1.4l-2.6-2.2 5.4-0.4c0.7-0.3 0.9-1.6 0-2.1l-5.1 0.6 3-2.7c0.5-0.9-1.9-2-3.2-0.7z" style="-inkscape-font-specification:URW Gothic L Semi-Bold Oblique;fill:#b24a4a;font-family:URW Gothic L;font-size:1400.7;font-style:oblique;font-weight:600;letter-spacing:0;line-height:125;word-spacing:0"/></g></svg>
