<svg id="canvas" width="100%" height="100%" viewBox="0 0 2500 512"  preserveAspectRatio="xMinYMax meet" xmlns:xlink="http://www.w3.org/1999/xlink" xmlns="http://www.w3.org/2000/svg">
<script type="text/javascript" xlink:href="https://cdnjs.cloudflare.com/ajax/libs/snap.svg/0.4.1/snap.svg.js"/>
<svg
   xmlns:dc="http://purl.org/dc/elements/1.1/"
   xmlns:cc="http://creativecommons.org/ns#"
   xmlns:rdf="http://www.w3.org/1999/02/22-rdf-syntax-ns#"
   xmlns:svg="http://www.w3.org/2000/svg"
   xmlns="http://www.w3.org/2000/svg"
   version="1.1"
   width="100%"
   height="380"
   viewBox="0 0 500 502"
   id="earth"
   y="350">
   x="66"
  <defs
     id="defs4840" />
  <metadata
     id="metadata4843">
    <rdf:RDF>
      <cc:Work
         rdf:about="">
        <dc:format>image/svg+xml</dc:format>
        <dc:type
           rdf:resource="http://purl.org/dc/dcmitype/StillImage" />
        <dc:title></dc:title>
      </cc:Work>
    </rdf:RDF>
  </metadata>
  <g
     transform="translate(-61.237172,-221.04424)"
     id="layer1">
    <g
       transform="matrix(1.1169259,0,0,1.1219551,25.495543,185.14168)"
       id="g3043"
       style="fill:#dbaa87;fill-opacity:0.30136988">
      <path
         d="m 340.5,127 c 0.6,-0.3 1.3,-0.6 1.9,-0.9 0.6,-0.3 1.3,-0.3 1.3,-0.3 0,0 0.8,0 1,0.8 0.5,2.2 0.8,4 1.1,6.3 0.2,1.2 0.7,2.3 1.5,3.2 1.2,1.4 2.7,1.9 4.6,1.7 1.2,-0.1 2.4,-0.6 3.5,-1.2 1.7,-0.9 3.2,-2.1 4.7,-3.4 -0.2,-0.6 -0.3,-1.2 -0.4,-1.8 -1.2,-4.1 -3.2,-7.9 -6.2,-11 -1.4,-1.4 -2.9,-2.6 -4.8,-3.4 -0.7,-0.3 -1.3,-0.7 -1.8,-1.3 -0.5,-0.5 -0.9,-1.1 -1.3,-1.6 -0.4,-0.5 -0.9,-1 -1.4,-1.4 -0.2,-0.2 -0.6,-0.4 -0.9,-0.5 -1.3,-0.2 -2.4,0.2 -3.3,1.1 -0.4,0.5 -0.5,1 -0.2,1.6 0.5,1 0.7,2.1 1,3.2 0.1,0.2 0.1,0.5 0.1,0.8 -0.4,0.3 -0.8,0.7 -1.3,1 -0.4,0.3 -0.8,0.6 -1.3,1 -0.5,0.3 -0.9,0.7 -1.3,1 -0.4,0.3 -0.9,0.6 -1.2,1 -0.7,0.6 2.2,5.1 3.4,4.7 0.7,-0.3 0.7,-0.3 1.3,-0.6 z"
         id="path3045"
         style="fill:#dbaa87;fill-opacity:0.30136988" />
      <path
         d="m 284.9,96.7 c 1.2,1.1 2.5,2 4.1,2.4 2.5,0.7 5,1.2 7.6,1.5 0.3,0 0.6,0 0.9,0 0.1,-0.3 0.2,-0.5 0.2,-0.7 0.3,-1.1 0.7,-2.2 1,-3.3 0.1,-0.5 0.3,-0.9 0.8,-1.2 0.3,-0.2 0.5,-0.4 0.8,-0.6 1.5,-1.5 1.5,-2.9 0,-4.4 -1,-1 -2.2,-1.7 -3.5,-2.2 -0.3,0.1 -0.5,0.1 -0.7,0.2 -3.5,1.3 -6.9,2.6 -10.4,3.9 -0.2,0.1 -0.4,0.1 -0.6,0.2 -1.1,0.5 -1.6,1.9 -1.1,3 0.3,0.5 0.6,0.9 0.9,1.2 z"
         id="path3047"
         style="fill:#dbaa87;fill-opacity:0.30136988" />
      <path
         d="m 166.3,177.9 c 0.6,0 1.3,-0.2 1.8,-0.4 0.7,-0.3 0.9,-1 0.5,-1.6 -0.2,-0.2 -0.4,-0.5 -0.6,-0.6 -0.4,-0.2 -0.8,-0.4 -1.2,-0.5 -0.7,-0.2 -1.4,-0.3 -2.1,-0.4 -1.5,-0.2 -3,-0.3 -4.5,-0.4 -2.2,-0.1 -4.2,-0.8 -5.9,-2.2 -0.4,-0.3 -0.8,-0.6 -1.2,-0.9 -0.3,-0.3 -0.7,-0.5 -1.1,-0.7 -1,-0.6 -2.1,-1 -3.3,-0.9 -0.7,0.1 -1.5,0.1 -2.2,0.3 -0.8,0.2 -1.6,0.5 -2.3,1 -1,0.8 -2.2,3 -2.2,3.4 0,0.4 0.2,0.8 0.5,0.9 0.6,0.2 1.2,0.5 1.8,0.6 0.9,0.2 1.9,0.3 2.8,0.5 4.5,0.8 9.1,1.6 13.7,2 1.9,-0.1 3.7,0 5.5,-0.1 z"
         id="path3049"
         style="fill:#dbaa87;fill-opacity:0.30136988" />
      <path
         d="m 176.3,185.4 c -1,-0.6 -2,-1.3 -2.9,-1.9 -0.3,-0.2 -0.8,-0.3 -1,-0.3 -0.2,0 -0.5,0.1 -0.8,0.2 -2.5,1.1 -5,2.3 -7.4,3.4 -0.6,0.3 -1.2,0.6 -1.8,0.9 -0.2,0.1 -0.5,0.4 -0.7,0.6 -0.2,0.2 -0.1,0.5 0.1,0.6 0.3,0.1 0.7,0.3 1,0.3 1.2,0.2 2.5,0.1 3.7,0.1 1.1,0 2.3,-0.1 3.4,-0.1 2.5,0 4.8,0.5 7,1.7 0.3,0.1 0.6,0.3 0.9,0.4 0.3,0.1 0.5,-0.1 0.7,-0.3 0.1,-0.1 0.1,-0.2 0.2,-0.4 0.4,-1.3 0.7,-2.9 0.5,-3.4 -0.2,-0.5 -0.6,-0.9 -1.2,-1.1 -0.6,-0.1 -1.2,-0.4 -1.7,-0.7 z"
         id="path3051"
         style="fill:#dbaa87;fill-opacity:0.30136988" />
      <path
         d="M 256,32 C 132.3,32 32,132.3 32,256 32,379.7 132.3,480 256,480 379.7,480 480,379.7 480,256 480,132.3 379.7,32 256,32 z M 120.2,391.8 C 84,355.5 64,307.3 64,256 c 0,-36.2 10,-70.9 28.6,-100.9 0.1,0.1 0.1,0.3 0.2,0.3 0.2,0.1 0.3,0.3 0.4,0.4 0.2,0.1 0.3,0.2 0.5,0.3 -0.1,0.6 -0.1,1.2 -0.2,1.8 -0.4,3.3 -0.9,6.5 -1.3,9.8 -0.3,2 0.1,3.9 0.9,5.7 0.6,1.4 1.5,2.7 2.6,3.9 1.3,1.5 2.8,2.7 4.4,3.8 2.7,1.9 5.6,3.3 8.6,4.5 0.3,0.1 0.5,0.2 0.9,0.3 -0.1,1.4 -0.3,2.7 -0.5,4 -0.2,1.3 -0.5,2 -0.4,3.1 0.1,0.7 0.3,1.4 0.6,1.6 1.6,1.4 3.2,2.9 4.9,4.3 0.5,0.4 1.1,2.4 1.2,3 0.8,3.5 1.3,5.3 2.2,8.8 0.1,0.6 0.4,1.1 0.9,1.4 1.8,1.3 3.5,2.7 5.2,4 0.3,0.2 0.7,0.5 1,0.6 1.7,0.9 2.7,2.2 3.2,4 0.3,1.1 0.4,2.2 0.4,3.4 0,2.2 -0.5,4.2 -1.1,6.3 -0.4,1.5 -1.1,2.9 -1.9,4.1 -1.3,1.8 -2.5,3.6 -3.8,5.4 -1.6,2.2 -3.2,4.5 -4.7,6.7 -0.6,0.8 -1.1,1.8 -1.6,2.6 -1.2,1.9 -1.7,3.9 -2,6.1 -0.3,2.5 -0.4,4.9 -0.2,7.4 0.2,2.3 0.6,4.5 1.4,6.6 0.2,0.5 0.2,0.9 0.1,1.5 -0.5,2.3 -0.2,4.4 0.7,6.5 0.5,1.3 1.2,2.5 2,3.6 0.9,1.2 1.8,2.3 2.7,3.5 1.5,1.8 2.9,3.5 4.3,5.4 3,4 6.7,7.2 10.8,9.9 0.3,0.2 0.6,0.4 1,0.6 -0.1,0.3 -0.1,0.5 -0.2,0.8 -0.6,1.8 -1,3.7 -1,5.7 -0.1,2.8 0.5,5.4 2.1,7.7 0.7,1 1.2,1.5 2.7,2.7 0.1,0.4 0,0.8 -0.1,1.3 -0.4,3.2 -0.9,6.4 -1.3,9.6 -0.2,1.7 -0.4,3.4 -0.7,5.1 -0.1,0.7 -0.2,1.4 -0.4,2 -0.7,2.4 -1.2,4.8 -1.5,7.2 -0.1,1.6 -0.2,3.1 0.1,4.7 0.2,1.3 0.7,2.6 1.7,3.6 -0.1,0.8 -0.2,1.6 -0.3,2.4 -0.3,2.6 -0.7,5.1 -1,7.7 -0.2,1.2 -0.4,2.3 -0.6,3.4 -0.4,2.6 -0.6,5.2 -0.5,7.8 0.1,1.4 0.2,2.7 0.6,4 0.3,1.1 0.7,2.2 1.4,3.1 0.2,0.2 0.3,0.5 0.3,0.8 0.5,3.4 0.9,6.7 1.4,10.1 0.3,2.1 0.6,4.3 0.9,6.4 0.1,0.4 0.2,0.7 0.3,1 2.4,4.1 3.4,9.5 6.5,13.1 1.9,2.2 4.7,4.8 7,6.5 0.8,0.6 2.1,2.1 3.5,3.5 -13.1,-7.9 -25.4,-17.5 -36.7,-28.7 z M 434.6,197.1 c -1.8,-0.4 -3.6,-0.6 -5.4,-0.7 -3,-0.2 -6.1,-0.3 -9.1,-0.1 -0.2,0 -0.4,0 -0.6,0 -0.6,0.1 -1.1,-0.1 -1.5,-0.5 -4.6,-3.6 -9.2,-7.1 -13.8,-10.7 -0.6,-0.4 -1.1,-0.8 -1.7,-1.3 -0.7,-0.5 -1.4,-0.9 -2.2,-1.2 -1.8,-0.6 -3.6,-0.9 -5.5,-1.2 -2.8,-0.3 -5.5,-0.3 -8.3,-0.2 -0.7,0 -1.3,-0.1 -1.9,-0.3 -2.5,-1 -5.2,-1.7 -7.9,-2.1 -2.5,-0.4 -5,-0.5 -7.6,-0.4 -2.8,0.1 -5.6,0.5 -8.3,1.4 -3.6,1.1 -7.2,2.2 -10.8,3.3 -0.6,0.2 -1.1,0.5 -1.5,1 -2.5,3 -5,5.9 -7.4,8.9 -0.4,0.4 -0.8,0.7 -1.3,0.8 -6.8,1.6 -11.8,5.5 -15,11.8 -0.3,0.7 -0.6,1.3 -0.9,2 -0.2,0.4 -0.3,0.8 -0.4,1.2 -0.2,0.6 -0.1,1.2 0.2,1.8 0.1,0.1 0.1,0.2 0.2,0.4 0.5,0.9 0.7,1.8 0.7,2.8 0.1,1.6 -0.1,3.2 -0.3,4.8 -0.3,2 -0.7,4 -1.3,5.9 -1.5,4.8 -2.6,9.6 -3.5,14.5 -0.7,3.7 -1.2,7.5 -1.1,11.3 0,1.8 0.2,3.5 0.6,5.2 0.1,0.4 0.3,0.9 0.4,1.3 0.1,0.4 0.4,0.7 0.7,1 3.4,3.3 6.7,6.6 10.2,9.7 3.1,2.8 6.3,5.4 9.8,7.7 2.6,1.7 5.4,3.2 8.3,4.3 3.2,1.2 6.5,1.7 9.9,1.4 3.5,-0.3 7,-0.5 10.6,-0.6 2.5,-0.1 5,0 7.5,0.5 0.8,0.2 1.6,0.4 2.4,0.8 0.9,0.4 1.7,1 2.3,1.9 0.1,0.2 0.2,0.3 0.4,0.5 0.6,0.7 1.4,1 2.3,0.8 0.5,-0.1 1,-0.3 1.4,-0.5 0.5,-0.2 1,-0.4 1.5,-0.7 0.4,-0.2 0.8,-0.3 1.2,-0.5 1,-0.3 1.7,0 2.1,1 0.2,0.6 0.4,1.2 0.5,1.8 0.6,2.5 0.9,5 0.5,7.6 -0.2,1.8 -0.7,3.5 -1.3,5.2 -0.6,1.7 -1.3,3.3 -1.9,5 -0.5,1.2 -0.9,2.5 -1.3,3.8 -1.1,3.4 -1.1,6.9 -0.1,10.3 0.5,1.8 1.2,3.5 1.8,5.3 0.7,1.8 1.3,3.6 1.7,5.5 0.7,3.1 0.4,6.1 -0.8,9 -0.8,2.1 -1.9,3.9 -3.4,5.6 -1.1,1.2 -2.2,2.4 -3.3,3.6 -0.4,0.4 -0.8,0.9 -1.2,1.3 -1.7,1.9 -3.2,3.9 -4.3,6.2 -0.9,1.8 -1.8,3.7 -2.5,5.6 -1,2.8 -1.2,5.6 -0.6,8.5 0.5,2.2 1,4.4 1.4,6.6 0.3,1.4 0.5,2.8 0.7,4.1 0.1,0.7 0.1,1.5 -0.1,2.2 -0.3,1.2 -0.7,2.3 -1.2,3.5 -1.2,3.1 -2.7,6 -4.1,9 -1.6,3.3 -3.1,6.6 -4.6,9.9 -0.7,1.6 -1.3,3.3 -1.8,5 -0.2,0.7 -0.3,1.5 -0.4,2.3 -0.1,1 0.6,2.2 1.6,2.8 -31.8,22 -69.5,33.9 -109,33.9 -32.7,0 -64.1,-8.1 -91.9,-23.4 0,-0.3 -0.1,-0.6 -0.1,-0.9 -1.2,-6.5 -3.6,-19 -4.8,-25.4 -0.1,-0.7 -0.2,-1.5 -0.2,-1.9 0,-0.4 0.1,-1.4 0.3,-1.8 1,-2.1 1.7,-3.8 2.7,-5.9 0.9,-1.9 1.7,-3.8 2.6,-5.7 0.3,-0.6 0.7,-1.2 1.2,-1.7 2.3,-2.2 4.5,-4.4 6.7,-6.5 0.3,-0.3 0.7,-0.6 1.1,-0.9 4.3,-2.9 8.7,-5.8 13,-8.7 0.7,-0.5 1.2,-1 1.7,-1.7 1.9,-2.9 3.9,-5.8 5.8,-8.8 0.8,-1.3 1.5,-2.6 2.3,-3.9 0.2,-0.3 0.4,-0.6 0.6,-0.8 2.6,-3.3 5.2,-6.6 7.7,-9.9 0.4,-0.5 0.8,-0.8 1.5,-0.9 4.2,-0.9 8.3,-2.2 12.1,-4.1 0.9,-0.5 1.8,-1 2.7,-1.5 0.4,-0.2 0.7,-0.5 0.9,-0.9 2.8,-3.8 5.5,-7.7 8.3,-11.5 0.3,-0.4 0.5,-0.9 0.7,-1.3 1.9,-5.2 3.9,-10.3 5.8,-15.5 0.2,-0.6 0.5,-1 1,-1.3 5.5,-3.6 8.8,-8.6 9.8,-15.1 0.2,-1.5 0.3,-2.9 0.1,-4.4 -0.2,-1.5 -1,-2.9 -1.6,-3.6 -2.6,-3.2 -4.8,-4.6 -8.3,-6.7 -4.5,-2.6 -9.2,-4.4 -14.3,-5.6 -1.2,-0.3 -2.9,-0.8 -3.3,-1 -0.4,-0.2 -0.7,-0.4 -0.8,-0.8 -1.1,-2.2 -2.2,-4.4 -3.6,-6.4 -1.2,-1.8 -2.5,-3.5 -4.1,-5 -0.3,-0.3 -0.4,-0.6 -0.5,-1 -0.4,-1.3 -0.8,-2.7 -1.3,-4 -1.7,-4.3 -4.2,-8.1 -7.4,-11.4 -5.3,-5.4 -11.7,-9.2 -18.9,-11.6 -0.6,-0.2 -1,-0.5 -1.4,-1 -2.7,-3.8 -6.3,-6.4 -10.5,-8.1 -1.5,-0.6 -3,-1.1 -4.6,-1.4 -0.4,-0.1 -0.8,-0.2 -1.1,-0.4 -2.8,-1.4 -5.7,-2.8 -8.5,-4.2 -0.5,-0.2 -0.9,-0.5 -1.2,-0.9 -0.7,-0.8 -1.6,-1.4 -2.5,-2 -1.1,-0.6 -2.2,-0.9 -3.4,-0.9 -1.4,0.1 -2.6,0.7 -3.6,1.7 -0.2,0.2 -0.4,0.5 -0.6,0.8 -0.7,1.2 -1.4,2.4 -2.4,3.4 -1.5,1.5 -3.2,2.5 -5.4,2.8 -1.4,0.2 -2.9,0 -4.2,-0.4 -1.8,-0.5 -3.4,-1.4 -5,-2.5 -0.4,-0.3 -0.8,-0.5 -1.3,-0.8 -2.9,-1.7 -4.7,-4.2 -5.2,-7.5 -0.1,-0.7 -0.1,-1.4 -0.2,-2.1 -0.1,-3.1 0.1,-6.3 0.4,-9.4 0.1,-0.8 0.2,-1.1 0.2,-1.6 0,-0.4 -0.2,-1.1 -0.7,-1.3 -0.7,-0.3 -1.3,-0.7 -1.8,-1.2 -0.4,-0.3 -0.7,-0.7 -1,-1.1 -0.6,-0.9 0.2,-1.5 0.7,-2.5 0.4,-0.8 0,-1.8 0.8,-2.3 0.8,-0.5 1.7,-1.1 2.5,-1.7 0.9,-0.7 1.7,-1.4 2.5,-2.3 0.4,-0.5 0.7,-1 0.9,-1.6 0.4,-1.2 0.3,-2.3 -0.5,-3.3 -0.7,-0.9 -1,-1.6 -2.1,-2.1 -0.3,-0.1 -1.2,0 -1.5,0.1 -1.2,0.3 -2.3,0.6 -3.5,0.8 -1.5,0.3 -3.1,0.3 -4.7,-0.1 -2,-0.5 -3.3,-1.7 -4.1,-3.6 -0.5,-1.4 -0.7,-2.8 -0.6,-4.3 0.1,-2.9 0.7,-5.7 1.6,-8.4 0.1,-0.3 0.2,-0.6 0.4,-0.9 4.6,-6.5 10.6,-11.1 18.3,-13.4 1.9,-0.5 3.7,-0.9 5.7,-1.1 0.8,-0.1 1.5,0 2.3,0.1 2.2,0.2 4.3,0.6 6.3,1.4 1.2,0.4 2.2,1 3.2,1.8 2.1,1.6 3.3,3.6 3.5,6.2 0.1,1.7 0.6,3.3 1.2,4.8 0.3,1 0.7,1.9 1.2,2.9 0.3,0.6 0.6,1.1 1,1.6 0.3,0.4 0.7,0.7 1.1,1 0.7,0.5 1.5,0.4 2.3,0.1 0.4,-0.2 0.7,-0.5 0.8,-1 0.1,-0.9 0.3,-1.8 0.4,-2.8 0.6,-3.7 1.2,-7.4 1.7,-11 0.3,-1.9 0.6,-3.7 0.9,-5.6 0,-0.2 0.1,-0.4 0.1,-0.6 3.7,-5.5 16.7,-6.4 22,-12.1 0.2,0.1 0.3,0.2 0.5,0.4 0.6,0.5 1.2,0.7 1.9,0.7 1,0.1 2,-0.1 3,-0.3 1.4,-0.4 2.8,-0.9 4.1,-1.6 1.1,-0.5 2.1,-1.1 3.1,-1.7 0.5,-0.3 0.9,-0.5 1.5,-0.6 3.1,-0.9 6.2,-1.8 9.3,-2.7 0.6,-0.2 1.2,-0.2 1.8,-0.1 2.6,0.3 5.2,0.3 7.9,0 1.8,-0.2 3.5,-0.5 5.2,-1 0.3,-0.1 0.6,-0.2 0.9,-0.3 0.4,-0.1 0.6,-0.3 0.8,-0.7 0.4,-0.8 0.9,-1.5 1.4,-2.2 0.4,-0.6 0.9,-1.1 1.5,-1.6 0.4,-0.3 0.8,-0.6 1.3,-0.8 0.9,-0.4 1.9,-0.4 2.9,-0.1 0.8,0.3 1.4,0.7 2,1.3 0.5,0.5 1,0.8 1.6,1.1 0.8,0.4 1.7,0.7 2.6,0.9 2,0.4 3.8,-0.1 5.2,-1.5 0.8,-0.7 1.3,-1.6 1.8,-2.5 0.8,-1.5 1.3,-3 1.7,-4.7 0.5,-2 0.8,-4 1,-6.1 0,-0.3 0,-0.7 0,-1.1 -0.2,0.1 -0.5,0.1 -0.6,0.2 -0.9,0.4 -1.7,0.7 -2.6,0.9 -0.3,0 -0.5,0.1 -0.8,0 -0.6,-0.1 -0.9,-0.5 -0.8,-1.1 0.1,-0.5 0.2,-1 0.5,-1.4 0.5,-0.9 1,-1.7 1.5,-2.6 0.6,-1 1.2,-1.9 1.7,-2.9 0.3,-0.6 0.5,-1.3 0.5,-2 0.1,-0.9 -0.2,-1.7 -0.9,-2.3 -0.4,-0.4 -0.9,-0.8 -1.4,-1.1 -0.6,-0.4 -1.2,-0.8 -1.8,-1.3 -0.9,-0.7 -1.7,-1.5 -2.3,-2.6 -0.1,-0.1 -0.2,-0.3 -0.3,-0.4 -1.1,-1.6 -2.6,-2.1 -4.4,-1.6 -1.4,0.4 -2.6,1.2 -3.7,2.3 -0.6,0.6 -1.1,1.1 -1.7,1.7 -0.7,0.6 -1.5,1.2 -2.3,1.6 -1.4,0.7 -2.9,0.7 -4.3,0 -0.4,-0.2 -0.7,-0.4 -1.1,-0.6 -0.2,-0.1 -0.5,-0.2 -0.7,-0.3 -0.6,-0.2 -1,-0.1 -1.4,0.5 -0.2,0.3 -0.4,0.6 -0.5,1 -0.5,1.5 -1.5,2.7 -2.6,3.8 -1.4,1.3 -2.9,2.3 -4.6,3.2 -1.3,0.7 -2.6,1.2 -4,1.8 -0.5,0.2 -1.1,0.3 -1.7,0.3 -1.6,-0.1 -2.7,-0.8 -3.4,-2.3 -0.4,-1 -0.6,-2 -0.6,-3 -0.1,-1.9 0.1,-3.7 0.5,-5.6 0.1,-0.7 0.3,-1.3 0.4,-1.9 0.1,-0.5 0.3,-0.8 0.7,-1 1.9,-1.2 3.7,-2.4 5.5,-3.6 0.2,-0.1 0.4,-0.3 0.7,-0.4 1.3,-0.8 2.5,-1.7 3.6,-2.7 0.9,-0.9 2,-1.7 3.1,-2.4 0.5,-0.3 1,-0.5 1.5,-0.7 0.2,-0.1 0.5,-0.1 0.8,-0.2 0.8,-0.1 1.4,0.2 1.8,0.9 0.8,1.6 2.2,1.9 3.8,1.8 0.8,0 1.7,-0.2 2.5,-0.4 0.9,-0.2 1.7,-0.6 2.5,-0.9 0.4,-0.2 0.8,-0.3 1.3,-0.3 2,-0.1 3.9,-0.1 5.9,-0.2 0.3,0 0.6,0 0.9,0.3 1.6,1.1 3.1,2.2 4.5,3.5 0.9,0.9 1.2,1.3 1.7,2.4 0.2,-0.2 0.5,-0.4 0.7,-0.6 1.7,-1.5 3.3,-3.1 5,-4.6 0.4,-0.3 0.8,-0.7 1.1,-1 1.7,-1.3 3.3,-2.5 5,-3.8 0.3,-0.2 0.5,-0.4 0.8,-0.6 0.1,-0.4 -0.2,-0.7 -0.3,-1 -1.1,-2.5 -2.3,-4.9 -3.5,-7.4 -0.1,-0.2 -0.2,-0.4 -0.3,-0.6 1.1,0 2.3,0 3.4,0 1.7,0 3.3,0 5,0.1 0,0 0,0 0,0 0.2,0.6 0.5,1.2 0.7,1.8 0.1,0.3 0.2,0.6 0,1 -0.3,0.9 -0.7,1.7 -1,2.6 -1.2,3.1 -2.4,6.2 -3.6,9.3 -0.2,0.5 -0.3,0.9 -0.2,1.5 0.4,4 1.1,7.8 2.6,11.6 0.9,2.2 2,4.4 3.5,6.3 1.4,1.8 3.1,3.3 5.2,4.3 0.2,0.1 0.5,0.2 0.7,0.3 0.1,0 0.1,0 0.3,0 0.2,-0.2 0.4,-0.5 0.6,-0.7 2.8,-3.5 5.7,-7 8.5,-10.4 1.9,-2.3 3.9,-4.5 5.9,-6.8 0.2,-0.2 0.4,-0.4 0.5,-0.6 1,-1.1 1,-1.1 2.5,-1.4 2.1,-0.4 4.2,-0.7 6.3,-1.1 1.2,-0.2 0.9,0 1.5,-1.1 2.2,-3.5 4.4,-7 6.6,-10.5 0.1,-0.2 0.3,-0.4 0.4,-0.6 20.3,4.9 39.5,13.2 57.1,24.4 -3.2,0.4 -6.4,0.6 -9.5,1 -0.1,0.2 -0.1,0.4 -0.1,0.6 -0.4,3.9 -0.4,7.8 0.2,11.7 0.3,1.6 0.7,3.3 1.4,4.8 0.5,1.1 1.1,2 2,2.8 0.4,0.4 0.8,0.6 1.4,0.7 1.7,0.2 3.3,0.4 4.9,0.7 0.4,0.1 0.8,0.1 1.3,0.2 1.3,2.1 2.5,4.2 3.8,6.3 3,0.5 6.1,0.8 9.1,1.3 0,0.8 -0.2,1.5 -0.2,2.2 -0.2,1.7 -0.5,3.4 -0.7,5 -0.1,0.5 0,1 0.2,1.6 0.7,1.5 1.3,3.1 2,4.6 0.1,0.3 0.2,0.5 0.3,0.8 -0.2,0.2 -0.3,0.5 -0.5,0.7 -1.6,2.1 -3.2,4.1 -4.7,6.2 -0.2,0.3 -0.5,0.6 -0.8,0.8 -2.4,1.5 -4.8,3 -7.1,4.5 -0.9,-0.1 -1.8,-0.2 -2.6,-0.2 -1.8,0 -3.6,0.3 -5.4,0.8 -1.2,0.3 -2.3,0.8 -3.5,1.2 -0.3,0.1 -0.6,0.2 -0.8,0.4 -1.4,0.8 -2.8,1.6 -4.3,2.4 -0.1,0.1 -0.3,0.2 -0.4,0.3 0.1,0.2 0.2,0.4 0.3,0.6 1.9,3.4 3.7,6.8 5.6,10.1 1.1,2 2.6,3.8 4.3,5.4 1.3,1.2 2.7,2.1 4.3,2.7 2,0.8 4.1,0.9 6.2,0.4 2.8,-0.7 5.7,-1.4 8.5,-2.2 0.3,-0.1 0.5,-0.2 0.8,-0.2 0.1,-0.5 0.1,-0.9 0.2,-1.4 0.3,-2.5 0.5,-5 0.9,-7.5 0.2,-1.5 0.5,-3 0.8,-4.4 0.1,-0.5 0.3,-0.9 0.5,-1.4 0,-0.1 0.2,-0.2 0.3,-0.2 0.1,0 0.3,0.1 0.3,0.2 0.2,0.8 2.7,-1.5 2.7,-1.5 0,0 6.2,-4.4 23.6,16 17.4,20.4 27.1,14.4 27.1,14.4 1.1,1.3 2,2.8 2.7,4.3 0.9,2 1.5,4.1 1.8,6.2 0,0.3 0,0.5 0,0.8 -1.2,-0.3 -1.5,-0.4 -1.9,-0.4 z"
         id="path3053"
         style="fill:#dbaa87;fill-opacity:0.30136988" />
    </g>
  </g>
</svg>
<style type="text/css">
  <![CDATA[
  #canvas {
  padding: 20px;
  margin: 0 auto;
  width: 100%;
  box-sizing:border-box;
  -moz-box-sizing:border-box;
  -webkit-box-sizing:border-box;}

  ]]>
  </style>
   <script type="text/javascript"><![CDATA[
    function createOrbit(x,y,r, start, size, offset, svg, timing){
	var canvas= Snap(svg)
  var cx= x
  var cy= y
  var dims= arcPath(cx,cy,r)

  function arcPath(cx, cy, r){
      return 'M '+cx+' '+cy+' m '+ r +', 0 a '+ r +','+r+' 0 1,0 '+(-1 * r*2)+',0';
  }
  var arc= canvas.path(dims)
	arc.attr({
    id: "arc",
    fill: "none",
    strokeWidth: "0",
    stroke: "#000",
  });
  var spark= canvas.path("m 33.383066,10.7644 -5.6434,6.0955 -4.676,-5.5626 c -2.3486,-2.6669003 -9.6094,0.7686 -7.256,2.6551 l 5.7242,5.17 -11.3031,0.1589 C 5.3900663,19.2223 5.7095663,23.7654 9.5193663,23.909 l 11.5609997,-0.7666 -6.6109,5.7216 c -1.3299,2.8416 4.3902,4.846 6.6271,2.3559 l 6.369,-6.3479 4.6438,5.7122 c 1.9182,1.9728 8.0169,0.3186 7.3688,-2.6832 l -5.9176,-5.2728 11.819,-0.3459 c 3.7201,-0.1106 4.3102,-4.8528 -0.1772,-4.6838 l -11.1741,0.8133 6.3851,-5.6654 c 1.6835,-1.6449 -5.0064,-3.5163003 -7.0303,-1.982 z")

  spark.attr({
    id:"spark",
    fill:"#f3dbc7",
    stroke:"none",
    transform: "translate(-25,-80)"
  })
 	var len = arc.getTotalLength();
  var beginAt= len * start;
  //var endAt= len * start;
  var half= len/2;
  var sparkGroup = canvas.g(spark);
  var bbox= sparkGroup.getBBox()
  var morph= size /bbox.width
  sparkGroup.transform('s' + morph + ' ' + morph )
  bbox= sparkGroup.getBBox()
  var y= parseInt(bbox.cy)
  setTimeout( function() {
        Snap.animate(beginAt, len, function( value ) {

          movePoint = arc.getPointAtLength( value );
          mod= len/2
          cur = value % mod
          scale= cur/mod
          if( value > half){
            scale= cur/mod + offset
          } else{
            scale= (mod-cur)/mod + offset
          }
          sparkGroup.transform( 't' + parseInt(movePoint.x ) + ',' + parseInt( movePoint.y -y) + 's' + scale + ' ' + scale);

      }, timing, mina.easeinout, function(){
      	sparkGroup.remove()
        arc.remove()
      });
    });
}
function getRandomIntInclusive(min, max) {
  return Math.floor(Math.random() * (max - min + 1)) + min;
}
function getRandomArbitrary(min, max) {
  return Math.random() * (max - min) + min;
}

var earth = Snap('#earth')
earth.transform('t0,-512')
var i = 0;
var timeout= 250
var x= window.screen.availWidth /2
var y= 520
var density = 200
var minR=300
var maxR= 1000
function next (){
	if( i < density){
		var radius = getRandomIntInclusive(minR, maxR)
    var ratio= 200/(600 -radius)
    var start= getRandomIntInclusive(0, 5)/ 10
  	var scale= getRandomArbitrary(.158, .16)
  	var timing= 90000 + ((1/90000)* ratio) //getRandomIntInclusive(20000, 30000) * ratio
  	timeout= getRandomArbitrary(250, 500)
   	var size =25 + Math.floor((radius % 25) /10);
		createOrbit( x, y, radius , start, size, scale, '#canvas', timing)
  	i++
    setTimeout(next, timeout)
	}

}
setTimeout(next, timeout)
  ]]></script>

</svg>
